<svg width="14" height="20" viewBox="0 0 14 20" fill="none" xmlns="http://www.w3.org/2000/svg">
<path fill-rule="evenodd" clip-rule="evenodd" d="M13.7071 12.2929C14.0976 12.6835 14.0976 13.3166 13.7071 13.7071L7.7071 19.7071C7.31658 20.0976 6.68342 20.0976 6.2929 19.7071L0.292896 13.7071C-0.0976301 13.3166 -0.097633 12.6835 0.29289 12.2929C0.683412 11.9024 1.31658 11.9024 1.7071 12.2929L6 16.5858L6 1C6 0.447715 6.44772 -3.30121e-07 7 -3.0598e-07C7.55228 -2.81839e-07 8 0.447715 8 1L8 16.5858L12.2929 12.2929C12.6834 11.9024 13.3166 11.9024 13.7071 12.2929Z" fill="#232233"/>
</svg>
