<svg width="14" height="16" viewBox="0 0 14 16" fill="none" xmlns="http://www.w3.org/2000/svg">
<path fill-rule="evenodd" clip-rule="evenodd" d="M8.75676 0.0335052C9.03398 0.107125 9.26624 0.296241 9.39452 0.55279C9.87808 1.51991 10.239 2.10688 10.6021 2.5828C10.9696 3.06452 11.3584 3.45889 11.9497 4.05027C13.3164 5.41691 14 7.21011 14 9.00002C14 10.7899 13.3164 12.5831 11.9497 13.9498C9.21608 16.6834 4.78392 16.6834 2.05025 13.9498C0.683615 12.5831 2.35307e-06 10.7899 0 9.00002C-2.95743e-06 7.21011 0.683611 5.41691 2.05025 4.05027C2.33625 3.76427 2.76637 3.67872 3.14004 3.8335C3.51372 3.98828 3.75736 4.35292 3.75736 4.75738C3.75736 5.87719 3.82729 6.73045 4.15481 7.41102C4.33491 7.78526 4.61585 8.15114 5.10004 8.47763C5.21568 7.41686 5.42752 6.12447 5.71375 4.89777C5.93911 3.93195 6.21939 2.96773 6.553 2.16366C6.71986 1.76148 6.90855 1.37854 7.12285 1.0479C7.33145 0.726075 7.59945 0.398579 7.94539 0.167954C8.18405 0.00884949 8.47954 -0.0401149 8.75676 0.0335052ZM9.12132 13.1213C7.94975 14.2929 6.05025 14.2929 4.87868 13.1213C4.29289 12.5355 4 11.7678 4 11C4 11 4.87868 11.5 6.50005 11.5C6.50005 10.5 7.00005 7.49999 7.75005 6.99999C8.25005 7.99999 8.53553 8.29289 9.12132 8.87867C9.70711 9.46446 10 10.2322 10 11C10 11.7678 9.70711 12.5355 9.12132 13.1213Z" fill="#E72A14"/>
</svg>
