<svg width="18" height="18" viewBox="0 0 18 18" fill="none" xmlns="http://www.w3.org/2000/svg">
<path fill-rule="evenodd" clip-rule="evenodd" d="M12.9375 1.6875C12.9375 1.37684 12.6857 1.125 12.375 1.125C12.0643 1.125 11.8125 1.37684 11.8125 1.6875V2.25H6.1875V1.6875C6.1875 1.37684 5.93566 1.125 5.625 1.125C5.31434 1.125 5.0625 1.37684 5.0625 1.6875V2.25H3.375C2.75368 2.25 2.25 2.75368 2.25 3.375V6.1875V14.625C2.25 15.2463 2.75368 15.75 3.375 15.75H14.625C15.2463 15.75 15.75 15.2463 15.75 14.625V6.1875V3.375C15.75 2.75368 15.2463 2.25 14.625 2.25H12.9375V1.6875ZM14.625 5.625V3.375H12.9375V3.9375C12.9375 4.24816 12.6857 4.5 12.375 4.5C12.0643 4.5 11.8125 4.24816 11.8125 3.9375V3.375H6.1875V3.9375C6.1875 4.24816 5.93566 4.5 5.625 4.5C5.31434 4.5 5.0625 4.24816 5.0625 3.9375V3.375H3.375V5.625H14.625ZM3.375 6.75H14.625V14.625H3.375V6.75Z" fill="#262626"/>
</svg>
