<svg width="16" height="16" viewBox="0 0 16 16" fill="none" xmlns="http://www.w3.org/2000/svg">
<path d="M14.25 0.5H1.75C1.41858 0.500327 1.10083 0.632128 0.866478 0.866478C0.632128 1.10083 0.500327 1.41858 0.5 1.75V14.25C0.500327 14.5814 0.632128 14.8992 0.866478 15.1335C1.10083 15.3679 1.41858 15.4997 1.75 15.5H14.25C14.5814 15.4997 14.8992 15.3679 15.1335 15.1335C15.3679 14.8992 15.4997 14.5814 15.5 14.25V1.75C15.4997 1.41858 15.3679 1.10083 15.1335 0.866478C14.8992 0.632128 14.5814 0.500327 14.25 0.5ZM11.869 6.57666L7.28528 10.9517C7.16916 11.0629 7.01456 11.125 6.85376 11.125C6.69295 11.125 6.53836 11.0629 6.42224 10.9517L4.13098 8.76416C4.0715 8.70753 4.02378 8.63973 3.99053 8.56464C3.95728 8.48955 3.93917 8.40864 3.93723 8.32654C3.93528 8.24444 3.94955 8.16276 3.9792 8.08618C4.00886 8.00959 4.05332 7.93961 4.11006 7.88023C4.16679 7.82085 4.23467 7.77324 4.30982 7.74013C4.38497 7.70701 4.46591 7.68904 4.54802 7.68724C4.63012 7.68544 4.71177 7.69984 4.7883 7.72963C4.86483 7.75942 4.93474 7.80401 4.99402 7.86084L6.85376 9.63574L11.006 5.67334C11.0653 5.61651 11.1352 5.57192 11.2117 5.54213C11.2882 5.51234 11.3699 5.49794 11.452 5.49974C11.5341 5.50154 11.615 5.51951 11.6902 5.55263C11.7653 5.58574 11.8332 5.63335 11.8899 5.69273C11.9467 5.75211 11.9911 5.82209 12.0208 5.89868C12.0505 5.97526 12.0647 6.05693 12.0628 6.13904C12.0608 6.22114 12.0427 6.30205 12.0095 6.37714C11.9762 6.45223 11.9285 6.52003 11.869 6.57666H11.869Z" fill="#5B4EFA"/>
</svg>
