<svg width="18" height="18" viewBox="0 0 18 18" fill="none" xmlns="http://www.w3.org/2000/svg">
<path fill-rule="evenodd" clip-rule="evenodd" d="M0.666992 2.74984C0.666992 1.59925 1.59973 0.666504 2.75033 0.666504H15.2503C16.4009 0.666504 17.3337 1.59925 17.3337 2.74984V15.2498C17.3337 16.4005 16.4009 17.3332 15.2503 17.3332H2.75033C1.59974 17.3332 0.666992 16.4005 0.666992 15.2498V2.74984ZM2.75033 2.33317C2.52021 2.33317 2.33366 2.51972 2.33366 2.74984V15.2498C2.33366 15.48 2.5202 15.6665 2.75033 15.6665H15.2503C15.4805 15.6665 15.667 15.48 15.667 15.2498V2.74984C15.667 2.51971 15.4805 2.33317 15.2503 2.33317H2.75033Z" fill="#727282"/>
</svg>
