<svg width="143" height="32" viewBox="0 0 143 32" fill="none" xmlns="http://www.w3.org/2000/svg">
<path d="M17.0086 9.28651H14.9719C14.9719 9.36534 14.9719 9.44605 14.9719 9.52864C14.9719 11.0884 14.9719 12.6481 14.9719 14.2079C14.9719 14.9005 14.8226 15.0525 14.1274 15.0525C9.68563 15.0544 5.24578 15.0563 0.804041 15.0563C0.148455 15.0563 -0.0215821 14.878 0.0426541 14.2511C0.261813 12.0944 0.845606 10.041 1.96218 8.1716C4.14999 4.4984 7.21065 1.85377 11.3954 0.690055C15.0191 -0.31787 18.6674 -0.289716 22.1512 1.22874C26.8612 3.28025 30.1203 6.69256 31.4844 11.7153C31.7092 12.5449 31.8301 13.4046 31.9756 14.2548C32.0681 14.7935 31.8471 15.0375 31.2879 15.0713C31.1462 15.0788 31.0045 15.0882 30.8647 15.0863C26.7063 15.0788 22.548 15.0732 18.3915 15.0619C18.1232 15.0619 17.855 15.0469 17.5867 15.0262C17.2088 14.9962 17.0407 14.8273 17.0218 14.45C17.0067 14.1553 17.0086 13.8607 17.0086 13.566C17.0086 12.1545 17.0086 10.743 17.0086 9.28651ZM13.6569 4.15867C11.7299 4.42144 9.41546 5.57952 7.75666 7.09798C6.62875 8.13031 5.71811 9.3203 5.05874 10.7149H10.9534C10.9534 10.6192 10.9534 10.5366 10.9534 10.454C10.9401 9.65815 10.9137 8.86044 10.9193 8.06461C10.9193 7.8863 10.9911 7.66295 11.1121 7.53907C11.2859 7.35888 11.539 7.25752 11.8073 7.38328C12.0661 7.5034 12.1719 7.71925 12.1719 7.99704C12.1719 9.09319 12.1719 10.1893 12.1719 11.2836C12.1719 11.8016 11.9792 11.9893 11.4502 11.9893C9.08861 11.9893 6.7251 11.9893 4.36348 11.9893C4.26524 11.9893 4.1651 11.9931 4.06686 11.9893C3.63799 11.963 3.39994 11.6571 3.48307 11.2404C3.50196 11.1522 3.5303 11.064 3.5662 10.9795C5.06441 7.41706 7.62819 4.93573 11.2481 3.5374C12.1984 3.16951 13.1827 2.91425 14.1973 2.796C14.7093 2.73594 14.9473 2.9668 14.97 3.47921C14.9719 3.54303 14.97 3.60497 14.97 3.66878C14.97 5.05961 14.97 6.45043 14.97 7.84313C14.97 7.91821 14.97 7.99329 14.97 8.08901C15.5443 8.08901 16.0941 8.08901 16.6439 8.08901C16.8857 8.08901 17.0067 7.96576 17.0067 7.71925C17.0067 6.36409 17.0067 5.00705 17.0123 3.65189C17.0123 3.53364 17.0237 3.41164 17.0501 3.29715C17.1351 2.92739 17.4072 2.73969 17.7851 2.79412C18.0779 2.83729 18.3707 2.88797 18.6598 2.94803C21.0573 3.43979 23.1828 4.47587 24.9965 6.12009C26.5287 7.50903 27.7133 9.14199 28.4539 11.0771C28.658 11.6139 28.4237 11.9574 27.8456 11.9893C27.804 11.9912 27.7605 11.9893 27.719 11.9893C25.3139 11.9893 22.9107 11.9893 20.5056 11.9893C20.0598 11.9893 19.8406 11.7829 19.8198 11.3399C19.8085 11.0809 19.8028 10.82 19.8066 10.561C19.8198 9.63562 19.8274 8.70841 19.8557 7.78307C19.8652 7.49214 20.073 7.32509 20.3753 7.30445C20.6795 7.28192 20.9288 7.43583 20.9874 7.70799C21.0309 7.91258 21.0498 8.12468 21.0516 8.3349C21.0611 9.05189 21.0573 9.76889 21.0592 10.484C21.0592 10.5591 21.0592 10.6342 21.0592 10.713H26.9652C26.1887 9.23583 25.2232 7.94449 23.9763 6.86899C22.3401 5.45752 20.4376 4.58474 18.3254 4.10799V13.7912H30.5813C30.0655 8.13594 24.3409 0.408511 14.373 1.37139C6.57962 2.1278 1.85827 8.67462 1.40484 13.7987H13.6569V4.15867Z" fill="white"/>
<path d="M14.9724 22.0349H17.009V21.8021C17.009 20.5089 17.009 19.2176 17.009 17.9243C17.009 17.8042 17.0053 17.6841 17.0147 17.5658C17.0449 17.1886 17.2471 16.9896 17.6268 16.9765C17.9102 16.9652 18.1917 16.9708 18.4751 16.9708C22.7185 16.9708 26.96 16.9708 31.2033 16.9708C31.3167 16.9708 31.4319 16.9708 31.5396 16.9952C31.84 17.0591 32.0176 17.2468 31.9798 17.5471C31.8835 18.2903 31.7966 19.0392 31.6265 19.7675C30.9086 22.8645 29.3386 25.4828 27.0318 27.6732C24.8005 29.7923 22.1536 31.1118 19.1269 31.6881C15.8358 32.315 12.6372 32.0071 9.56142 30.6745C6.23626 29.2349 3.68948 26.9243 1.91732 23.7786C1.04069 22.2226 0.434221 20.569 0.173498 18.799C0.113041 18.3898 0.0544723 17.9806 0.00535059 17.5696C-0.0305461 17.2693 0.11493 17.0553 0.419107 17.0084C0.710059 16.9615 1.01046 16.9427 1.30519 16.9427C5.64679 16.9502 9.9884 16.9615 14.33 16.9746C14.7759 16.9746 14.9686 17.1792 14.9686 17.6297C14.9686 19.013 14.9686 20.3982 14.9686 21.7815C14.9686 21.8584 14.9686 21.9335 14.9686 22.0367L14.9724 22.0349ZM5.08189 21.346C6.36284 23.9362 8.33149 25.7982 10.9406 27.0107C12.8526 27.8985 14.8477 28.3114 16.958 28.1031V23.4951H14.4282C14.0183 23.4951 13.6839 23.1648 13.6839 22.7556V18.281H1.39021C1.45633 18.6657 1.50356 19.0411 1.5848 19.4109C2.09869 21.759 3.16048 23.848 4.76449 25.633C8.58276 29.8824 13.3891 31.3971 18.9833 30.4662C21.5566 30.0382 23.7935 28.8201 25.747 27.1102C28.0199 25.1187 29.6201 22.6974 30.3513 19.7506C30.4703 19.2701 30.5383 18.7784 30.6346 18.2678C30.4646 18.2584 30.3475 18.2472 30.2284 18.2453C29.0552 18.2265 27.8801 18.2021 26.7068 18.1909C25.4712 18.1796 24.2337 18.1796 22.9981 18.1796C21.5207 18.1796 20.0432 18.189 18.5658 18.189C18.375 18.189 18.3013 18.2397 18.3032 18.448C18.3108 21.4981 18.3089 24.5462 18.3089 27.5963C18.3089 27.6695 18.3183 27.7427 18.324 27.8196C18.9456 27.8234 19.5142 27.6883 20.064 27.4762C22.1555 26.6709 23.9012 25.3702 25.4051 23.7373C25.9133 23.1854 26.3535 22.5829 26.6596 21.896C26.7408 21.7139 26.8032 21.5225 26.8863 21.3066H21.0635C21.0635 21.393 21.0635 21.468 21.0635 21.5431C21.0635 22.2807 21.0635 23.0184 21.0578 23.756C21.0559 23.9512 21.037 24.1502 20.9954 24.3398C20.9501 24.5481 20.8027 24.6589 20.593 24.6795C20.1698 24.7208 19.8203 24.3848 19.8184 23.9606C19.8184 22.9433 19.8184 21.9279 19.8222 20.9106C19.8222 20.7717 19.8392 20.6309 19.8619 20.492C19.8959 20.2705 20.013 20.111 20.2492 20.0772C20.4381 20.0509 20.6289 20.0322 20.8179 20.0322C23.0321 20.0303 25.2445 20.0322 27.4587 20.0322C27.608 20.0322 27.7554 20.0378 27.9046 20.0434C28.3486 20.0641 28.5734 20.3306 28.5111 20.7679C28.496 20.8787 28.4638 20.9894 28.4204 21.0908C28.018 22.0461 27.523 22.9508 26.9165 23.7955C26.1929 24.8034 25.3503 25.7006 24.3622 26.4532C21.0106 29.0078 17.266 29.9087 13.119 29.0434C9.87315 28.3658 7.29426 26.6372 5.27649 24.0507C4.52644 23.0897 3.9502 22.0292 3.51756 20.8937C3.34185 20.4338 3.5799 20.0697 4.07301 20.0434C4.24871 20.034 4.42631 20.0265 4.60201 20.0265C6.65379 20.0246 8.70368 20.0228 10.7555 20.0228C10.9822 20.0228 11.2089 20.019 11.4337 20.0265C12.0043 20.0472 12.1951 20.2405 12.197 20.8017C12.2008 21.8209 12.2027 22.8401 12.2045 23.8574C12.2045 23.9494 12.2045 24.0413 12.1913 24.1314C12.1384 24.5369 11.9023 24.7396 11.5093 24.7208C11.19 24.7058 10.9746 24.4712 10.9671 24.0864C10.9519 23.3412 10.9538 22.5961 10.9501 21.8528C10.9501 21.6914 10.9501 21.5318 10.9501 21.3441H5.08567L5.08189 21.346Z" fill="white"/>
<path d="M54.5643 7.54428H58.5831V24.7973H54.5643V17.8714H47.2415V24.7973H43.198V7.54428H47.2415V14.2237H54.5643V7.54428Z" fill="white"/>
<path d="M64.7584 11.4139C64.0845 11.4139 63.5339 11.2167 63.1065 10.8223C62.6956 10.428 62.4901 9.92684 62.4901 9.31887C62.4901 8.69448 62.7038 8.1851 63.1312 7.79075C63.5585 7.3964 64.1009 7.19922 64.7584 7.19922C65.4159 7.19922 65.9583 7.3964 66.3857 7.79075C66.8131 8.1851 67.0268 8.69448 67.0268 9.31887C67.0268 9.92684 66.8131 10.428 66.3857 10.8223C65.9748 11.2167 65.4324 11.4139 64.7584 11.4139ZM62.8106 12.6216H66.6816V24.7973H62.8106V12.6216Z" fill="white"/>
<path d="M84.5419 7.54428L77.7369 17.9207V24.7973H76.6521V17.9207L69.8718 7.54428H71.1539L77.1945 16.8609L83.2352 7.54428H84.5419Z" fill="white"/>
<path d="M88.7889 7.54428H89.8737V24.7973H88.7889V7.54428Z" fill="white"/>
<path d="M96.9275 23.7621H107.998V24.7973H95.8427V7.54428H107.677V8.57946H96.9275V15.5546H107.16V16.5898H96.9275V23.7621Z" fill="white"/>
<path d="M112.937 7.54428H114.022V23.7374H123.909V24.7973H112.937V7.54428Z" fill="white"/>
<path d="M133.61 7.54428C135.319 7.54428 136.84 7.91399 138.171 8.6534C139.502 9.37638 140.538 10.3951 141.278 11.7096C142.017 13.0077 142.387 14.4948 142.387 16.1708C142.387 17.8468 142.017 19.342 141.278 20.6566C140.538 21.9546 139.502 22.9734 138.171 23.7128C136.84 24.4358 135.319 24.7973 133.61 24.7973H127.84V7.54428H133.61ZM133.61 23.7374C135.105 23.7374 136.437 23.417 137.604 22.7762C138.771 22.1354 139.675 21.2399 140.316 20.0897C140.973 18.9395 141.302 17.6332 141.302 16.1708C141.302 14.7084 140.973 13.4021 140.316 12.2519C139.658 11.1017 138.746 10.2062 137.579 9.56534C136.412 8.92452 135.089 8.60411 133.61 8.60411H128.925V23.7374H133.61Z" fill="white"/>
</svg>
