<svg width="94" height="94" viewBox="0 0 94 94" fill="none" xmlns="http://www.w3.org/2000/svg">
<rect width="94" height="94" rx="47" fill="#F4F5FF"/>
<path d="M47.1296 77.0649C30.4715 77.0649 16.9194 63.514 16.9194 46.8523C16.9194 30.1906 30.4715 16.6445 47.1296 16.6445C63.7878 16.6445 77.3398 30.1955 77.3398 46.8523C77.3398 54.5318 74.4573 61.8517 69.2173 67.4606C68.8187 67.8884 68.1431 67.9127 67.7153 67.5141C67.2876 67.1156 67.2633 66.4399 67.6619 66.0122C72.5324 60.797 75.2108 53.9923 75.2108 46.8523C75.2108 31.3669 62.6114 18.7686 47.1248 18.7686C31.6381 18.7686 19.0436 31.3669 19.0436 46.8523C19.0436 62.3377 31.643 74.936 47.1296 74.936C52.4134 74.936 57.561 73.4633 62.0184 70.6734C62.5142 70.3623 63.1704 70.513 63.4815 71.0088C63.7926 71.5045 63.6419 72.1607 63.1461 72.4718C58.3533 75.4755 52.8168 77.0601 47.1296 77.0601V77.0649Z" fill="#5B4EFA"/>
<path d="M47.1297 68.5352C35.1719 68.5352 25.4453 58.8094 25.4453 46.8526C25.4453 34.8958 35.1768 25.1699 47.1297 25.1699C53.1912 25.1699 59.0146 27.7314 63.1123 32.1982C63.5109 32.6308 63.4817 33.3015 63.0491 33.7001C62.6165 34.0938 61.9457 34.0695 61.5471 33.6369C57.8528 29.6076 52.5933 27.294 47.1297 27.294C36.3434 27.294 27.5695 36.0671 27.5695 46.8526C27.5695 57.638 36.3434 66.4112 47.1297 66.4112C57.916 66.4112 66.6899 57.638 66.6899 46.8526C66.6899 43.5377 65.849 40.2666 64.2546 37.3892C63.9727 36.874 64.1574 36.2275 64.6678 35.9456C65.1782 35.6637 65.8295 35.8484 66.1115 36.3588C67.8808 39.5521 68.8141 43.178 68.8141 46.8526C68.8141 58.8094 59.0875 68.5352 47.1297 68.5352Z" fill="#5B4EFA"/>
<path d="M47.1295 59.2911C40.2707 59.2911 34.6953 53.7112 34.6953 46.8579C34.6953 44.4957 35.3613 42.2016 36.6202 40.2136C36.9362 39.7179 37.5924 39.572 38.0882 39.8831C38.584 40.199 38.7298 40.8552 38.4187 41.351C37.3785 42.9987 36.8244 44.8991 36.8244 46.8579C36.8244 52.5398 41.4471 57.167 47.1343 57.167C52.8215 57.167 57.4443 52.5447 57.4443 46.8579C57.4443 41.1711 52.8215 36.5488 47.1343 36.5488C45.0684 36.5488 43.0755 37.1564 41.3693 38.3083C40.8832 38.6388 40.2221 38.5076 39.8916 38.0215C39.5611 37.5355 39.6923 36.8745 40.1784 36.544C42.2345 35.1539 44.6407 34.4199 47.1295 34.4199C53.9882 34.4199 59.5636 39.9998 59.5636 46.8531C59.5636 53.7064 53.9833 59.2862 47.1295 59.2862V59.2911Z" fill="#5B4EFA"/>
</svg>
