<svg width="94" height="94" viewBox="0 0 94 94" fill="none" xmlns="http://www.w3.org/2000/svg">
<rect width="94" height="94" rx="47" fill="#F4F5FF"/>
<path fill-rule="evenodd" clip-rule="evenodd" d="M47.3897 77.1544C47.4493 77.1338 47.5076 77.1076 47.5635 77.0762L72.6743 62.4972C72.8679 62.4059 73.0342 62.2527 73.1408 62.0492C73.1825 61.9712 73.2128 61.8901 73.2325 61.8077C73.2511 61.7306 73.2608 61.6507 73.2608 61.5694V32.0554C73.2608 31.6875 73.0618 31.3476 72.7425 31.166L47.5496 16.9165C47.2442 16.7489 46.8694 16.7442 46.5639 16.9165L37.9473 21.699C37.4568 21.969 37.2809 22.5884 37.5493 23.082C37.8177 23.5756 38.4332 23.7525 38.9237 23.4825L46.0411 19.5344V30.6719L32.7793 38.0261L23.3465 32.108L32.482 27.0448C32.9726 26.7747 33.1484 26.1554 32.88 25.6618C32.6116 25.1682 31.9961 24.9912 31.5056 25.2613L20.8667 31.1613C20.574 31.3254 20.3833 31.6188 20.3492 31.9486C20.3456 31.9834 20.3438 32.0183 20.3438 32.053C20.3438 32.0538 20.3438 32.0546 20.3438 32.0554V61.5694C20.3438 61.6004 20.3451 61.6312 20.3479 61.6617C20.3588 61.7886 20.3937 61.9153 20.455 62.0353C20.5607 62.2425 20.7267 62.3971 20.9196 62.4896L46.5547 77.0808C46.5958 77.104 46.6379 77.1239 46.6807 77.1408C46.7949 77.1863 46.9194 77.2114 47.05 77.2114H47.0546C47.172 77.2114 47.2848 77.1913 47.3897 77.1544ZM22.366 33.8908V59.9078L31.737 55.0781V39.7676L22.366 33.8908ZM23.4956 61.6117L32.7232 56.8559L46.0939 64.4656L46.0489 74.4507L23.4956 61.6117ZM48.0762 74.4194L70.1456 61.6072L61.2048 56.8583L48.1211 64.454L48.0762 74.4194ZM71.2293 33.9285V59.8839L62.2007 55.0884V39.766L71.2293 33.9285ZM70.2866 32.1182L48.0682 19.5508V30.613L52.4734 33.1033C52.9593 33.378 53.1352 33.9974 52.8575 34.491C52.5845 34.9799 51.969 35.1569 51.4785 34.8775L47.1007 32.4001L33.7546 39.7996V55.0968L47.1007 62.6918L60.1738 55.1014V39.7903L55.6248 37.2198C55.1389 36.9451 54.9631 36.3257 55.2407 35.8321C55.5184 35.3385 56.1339 35.1709 56.6198 35.4456L61.1643 38.0164L70.2866 32.1182Z" fill="#5B4EFA"/>
</svg>
