<svg width="94" height="94" viewBox="0 0 94 94" fill="none" xmlns="http://www.w3.org/2000/svg">
<rect width="94" height="94" rx="47" fill="#F4F5FF"/>
<g clip-path="url(#clip0_4324_5402)">
<path d="M33.2294 73.6188C32.6392 73.6188 32.1611 73.1407 32.1611 72.5505V56.0527C32.1611 55.4624 32.6392 54.9844 33.2294 54.9844C33.8197 54.9844 34.2977 55.4624 34.2977 56.0527V72.5505C34.2977 73.1407 33.8197 73.6188 33.2294 73.6188Z" fill="#5B4EFA"/>
<path d="M42.1904 75.9762C41.6001 75.9762 41.1221 75.4981 41.1221 74.9079V58.3808C41.1221 57.7906 41.6001 57.3125 42.1904 57.3125C42.7806 57.3125 43.2587 57.7906 43.2587 58.3808V74.9079C43.2587 75.4981 42.7806 75.9762 42.1904 75.9762Z" fill="#5B4EFA"/>
<path d="M51.6538 76.4722C51.0635 76.4722 50.5854 75.9942 50.5854 75.4039V39.5351C50.5854 38.9449 51.0635 38.4668 51.6538 38.4668C52.244 38.4668 52.7221 38.9449 52.7221 39.5351V75.4039C52.7221 75.9942 52.244 76.4722 51.6538 76.4722Z" fill="#5B4EFA"/>
<path d="M60.9467 72.9453C60.3565 72.9453 59.8784 72.4672 59.8784 71.877V50.6328C59.8784 50.0425 60.3565 49.5645 60.9467 49.5645C61.537 49.5645 62.015 50.0425 62.015 50.6328V71.877C62.015 72.4672 61.537 72.9453 60.9467 72.9453Z" fill="#5B4EFA"/>
<path d="M75.2299 55.4003C75.1421 55.4003 75.0543 55.3905 74.9665 55.3661C74.4055 55.2198 74.0689 54.649 74.2153 54.088C74.8153 51.7856 75.1177 49.4002 75.1177 47.0001C75.1177 41.7171 73.6445 36.5707 70.8591 32.117C70.5518 31.6243 70.703 30.9804 71.1908 30.6731C71.6835 30.3658 72.3274 30.517 72.6348 31.0048C75.6299 35.7951 77.2104 41.322 77.2104 47.0001C77.2104 49.5807 76.8836 52.1417 76.2446 54.6149C76.1226 55.0881 75.6982 55.4003 75.2299 55.4003Z" fill="#5B4EFA"/>
<path d="M47.0001 77.2099C34.8292 77.2099 23.9022 69.9659 19.1607 58.7511C18.9363 58.2194 19.1851 57.5999 19.7168 57.3755C20.2534 57.1511 20.868 57.3999 21.0924 57.9316C25.5022 68.3659 35.6731 75.1075 47.0001 75.1075C57.4539 75.1075 66.9857 69.3611 71.8736 60.1073C72.1468 59.5951 72.781 59.3999 73.2932 59.6682C73.8054 59.9365 74.0005 60.5756 73.7322 61.0878C68.4785 71.0294 58.2393 77.2051 47.005 77.2051L47.0001 77.2099Z" fill="#5B4EFA"/>
<path d="M19.2632 53.3896C18.9413 53.3896 18.6291 53.2432 18.4242 52.9701C18.0779 52.5066 18.1705 51.8481 18.6388 51.5018L58.8199 21.4867C55.1418 19.7842 51.0881 18.8867 47.0002 18.8867C31.4976 18.8867 18.8876 31.4966 18.8876 46.9993C18.8876 47.5797 18.4193 48.048 17.8388 48.048C17.2583 48.048 16.79 47.5797 16.79 46.9993C16.79 30.3405 30.3415 16.7891 47.0002 16.7891C51.9905 16.7891 56.937 18.033 61.3078 20.3842C61.6248 20.555 61.8297 20.872 61.8541 21.2282C61.8785 21.5843 61.7224 21.9306 61.4346 22.1452L19.8925 53.1798C19.7023 53.3213 19.4828 53.3896 19.2632 53.3896Z" fill="#5B4EFA"/>
<path d="M42.1902 59.449C42.1024 59.449 42.0098 59.4393 41.922 59.4149L32.956 57.0929C32.3852 56.9466 32.0438 56.3612 32.1901 55.7904C32.3365 55.2197 32.9218 54.8782 33.4926 55.0246L41.6244 57.1319L50.7026 39.0536C50.8635 38.7317 51.1757 38.5121 51.5318 38.4731C51.8879 38.4341 52.2441 38.5707 52.4733 38.8487L60.7759 48.7708L70.815 31.034C71.1077 30.5218 71.7565 30.3413 72.2687 30.6291C72.7809 30.9218 72.9614 31.5706 72.6736 32.0828L61.8735 51.1562C61.7027 51.4587 61.3905 51.6636 61.0442 51.6928C60.6978 51.727 60.3564 51.5855 60.1271 51.3172L51.8782 41.4634L43.1415 58.8588C42.9561 59.2246 42.5854 59.449 42.1902 59.449Z" fill="#5B4EFA"/>
</g>
<defs>
<clipPath id="clip0_4324_5402">
<rect width="60.4204" height="60.4204" fill="white" transform="translate(16.79 16.7891)"/>
</clipPath>
</defs>
</svg>
