<svg width="20" height="20" viewBox="0 0 20 20" fill="none" xmlns="http://www.w3.org/2000/svg">
<path fill-rule="evenodd" clip-rule="evenodd" d="M6.25 0.75C5.69772 0.75 5.25 1.19772 5.25 1.75V5.25H1.75C1.19772 5.25 0.75 5.69772 0.75 6.25V18.25C0.75 18.8023 1.19772 19.25 1.75 19.25H13.75C14.3023 19.25 14.75 18.8023 14.75 18.25V14.75H18.25C18.8023 14.75 19.25 14.3023 19.25 13.75V1.75C19.25 1.19772 18.8023 0.75 18.25 0.75H6.25ZM14.75 12.75H17.25V2.75H7.25V5.25H13.75C14.3023 5.25 14.75 5.69772 14.75 6.25V12.75ZM6.25 7.25H2.75V17.25H12.75V13.75V7.25H6.25Z" fill="#5B4EFA"/>
</svg>
