<svg width="20" height="20" viewBox="0 0 20 20" fill="none" xmlns="http://www.w3.org/2000/svg">
<path fill-rule="evenodd" clip-rule="evenodd" d="M3.18977 2.50871C3.53032 2.19913 4.05736 2.22422 4.36695 2.56477L6.38418 4.78372C6.39321 4.7932 6.40205 4.80291 6.41067 4.81286L8.50733 7.11919L8.5148 7.1273L8.52226 7.13561L12.7115 11.7438L12.7191 11.7521L12.7265 11.7603L14.8229 14.0663C14.8313 14.0751 14.8395 14.0842 14.8475 14.0934L16.8669 16.3148C17.1765 16.6553 17.1514 17.1824 16.8109 17.4919C16.4703 17.8015 15.9433 17.7764 15.6337 17.4359L14.0139 15.6541C12.7464 16.194 11.3792 16.4686 9.99699 16.458C6.59665 16.457 4.20964 14.9189 2.69235 13.4018C1.93587 12.6454 1.39064 11.8904 1.03343 11.3232C0.854423 11.0389 0.721443 10.7999 0.631779 10.6287C0.586916 10.5431 0.552803 10.4742 0.529108 10.425C0.517258 10.4004 0.508005 10.3807 0.501308 10.3662L0.49317 10.3485L0.490527 10.3426L0.489561 10.3404L0.489166 10.3396C0.488993 10.3392 0.48883 10.3388 1.25013 10.0004L0.48883 10.3388C0.393056 10.1233 0.393046 9.87737 0.488802 9.6619L1.25027 10.0003C0.488802 9.6619 0.48892 9.66163 0.489043 9.66136L0.489315 9.66074L0.489956 9.65931L0.491617 9.65561L0.49647 9.64493L0.512347 9.61077C0.525689 9.58245 0.544583 9.54318 0.569159 9.49408C0.618289 9.39591 0.690258 9.25817 0.786122 9.08974C0.977597 8.75333 1.26589 8.2919 1.65985 7.77775C2.29561 6.94804 3.21875 5.96526 4.46883 5.15452L3.13371 3.68589C2.82413 3.34534 2.84922 2.8183 3.18977 2.50871ZM5.60789 6.40749C4.44134 7.11238 3.57699 8.01598 2.9828 8.79145C2.64219 9.23597 2.39498 9.63239 2.2346 9.91417C2.21749 9.94424 2.20139 9.97296 2.18628 10.0003C2.25269 10.1203 2.33829 10.2676 2.44378 10.4351C2.75064 10.9224 3.22103 11.5735 3.8708 12.2232C5.16552 13.5178 7.15244 14.7914 10.0003 14.7914H10.007L10.007 14.7914C10.964 14.799 11.9125 14.6428 12.8121 14.3321L11.9866 13.4241C11.3329 13.8033 10.5787 13.9905 9.8121 13.9539C8.76353 13.9039 7.77776 13.4395 7.07161 12.6627C6.36547 11.886 5.99679 10.8605 6.04667 9.81195C6.08314 9.04538 6.34113 8.31236 6.78072 7.69759L5.60789 6.40749ZM7.71146 9.89115C7.72665 9.57172 7.80829 9.26235 7.94774 8.98133L10.8196 12.1404C10.5266 12.2525 10.2109 12.3044 9.89145 12.2891C9.28438 12.2602 8.71367 11.9913 8.30484 11.5416C7.89602 11.0919 7.68257 10.4982 7.71146 9.89115ZM8.24828 3.68417C8.82755 3.58823 9.41378 3.54047 10.0009 3.54139C16.5218 3.54179 19.2715 9.14887 19.4908 9.61624C19.6199 9.89146 19.5903 10.1729 19.4893 10.3876C19.3521 10.6793 18.5348 12.3264 16.8538 13.832C16.511 14.139 15.9842 14.11 15.6771 13.7672C15.3701 13.4244 15.3991 12.8975 15.7419 12.5905C16.8491 11.5988 17.52 10.5321 17.8145 9.99992C17.1728 8.83743 14.7832 5.20806 10.0002 5.20806H9.99888C9.50364 5.20725 9.00919 5.24751 8.52061 5.32844C8.06656 5.40364 7.63752 5.09652 7.56231 4.64247C7.48711 4.18842 7.79423 3.75937 8.24828 3.68417ZM10.7456 6.11223C10.2936 6.02544 9.85686 6.32149 9.77007 6.77347C9.68328 7.22545 9.97932 7.66221 10.4313 7.749C10.9185 7.84255 11.3622 8.09154 11.6959 8.45861C12.0296 8.82569 12.2353 9.29107 12.2821 9.78494C12.3255 10.2431 12.7322 10.5793 13.1904 10.5359C13.6486 10.4925 13.9848 10.0858 13.9413 9.62765C13.8605 8.7749 13.5053 7.97134 12.9292 7.33751C12.353 6.70369 11.5868 6.27376 10.7456 6.11223Z" fill="#727282"/>
</svg>
