<svg width="20" height="20" viewBox="0 0 20 20" fill="none" xmlns="http://www.w3.org/2000/svg">
<path fill-rule="evenodd" clip-rule="evenodd" d="M10.0003 7.70866C8.73467 7.70866 7.70866 8.73467 7.70866 10.0003C7.70866 11.266 8.73467 12.292 10.0003 12.292C11.266 12.292 12.292 11.266 12.292 10.0003C12.292 8.73467 11.266 7.70866 10.0003 7.70866ZM6.04199 10.0003C6.04199 7.8142 7.8142 6.04199 10.0003 6.04199C12.1865 6.04199 13.9587 7.8142 13.9587 10.0003C13.9587 12.1865 12.1865 13.9587 10.0003 13.9587C7.8142 13.9587 6.04199 12.1865 6.04199 10.0003Z" fill="#727282"/>
<path fill-rule="evenodd" clip-rule="evenodd" d="M2.69195 6.59793C4.20971 5.08 6.59781 3.54102 9.99999 3.54102C13.4022 3.54102 15.7903 5.08 17.308 6.59793C18.0645 7.35449 18.6097 8.1096 18.9669 8.67698C19.1459 8.96132 19.2789 9.2004 19.3686 9.37159C19.4134 9.45725 19.4475 9.52609 19.4712 9.5753C19.4831 9.59991 19.4923 9.61964 19.499 9.63412L19.5072 9.65188L19.5098 9.65774L19.5112 9.66079C19.5114 9.66117 19.5115 9.66154 18.75 9.99996C19.5115 10.3384 19.5113 10.3388 19.5112 10.3392L19.5108 10.3401L19.5098 10.3422L19.5071 10.3481L19.499 10.3659C19.4923 10.3803 19.4831 10.4001 19.4712 10.4247C19.4475 10.4739 19.4134 10.5427 19.3685 10.6283C19.2789 10.7995 19.1459 11.0385 18.9669 11.3228C18.6097 11.8901 18.0644 12.645 17.308 13.4014C15.7902 14.9191 13.4021 16.4577 9.99999 16.4577C6.59787 16.4577 4.2098 14.9191 2.69202 13.4014C1.93553 12.645 1.3903 11.8901 1.0331 11.3228C0.854087 11.0385 0.721107 10.7995 0.631443 10.6283C0.58658 10.5427 0.552467 10.4739 0.528772 10.4247C0.516922 10.4001 0.507669 10.3803 0.500972 10.3659L0.492834 10.3481L0.490191 10.3422L0.489225 10.3401L0.48883 10.3392C0.488657 10.3388 0.488493 10.3384 1.24999 9.99996C0.488466 9.66154 0.488629 9.66117 0.488802 9.66079L0.489197 9.6599L0.490164 9.65774L0.492806 9.65188L0.500943 9.63412C0.507639 9.61964 0.516892 9.59991 0.528741 9.5753C0.552435 9.52609 0.586547 9.45725 0.631408 9.37159C0.721069 9.2004 0.854047 8.96132 1.03306 8.67698C1.39025 8.1096 1.93548 7.35449 2.69195 6.59793ZM1.24999 9.99996L0.488802 9.66079C0.393046 9.87626 0.393056 10.1237 0.48883 10.3392L1.24999 9.99996ZM2.18594 9.99992C2.25235 10.1199 2.33795 10.2672 2.44344 10.4347C2.7503 10.922 3.2207 11.5732 3.87046 12.2229C5.16518 13.5174 7.15211 14.791 9.99999 14.791C12.8479 14.791 14.8348 13.5174 16.1295 12.2229C16.7793 11.5732 17.2497 10.922 17.5565 10.4347C17.662 10.2672 17.7476 10.1199 17.814 9.99992C17.7476 9.87986 17.662 9.73253 17.5565 9.56493C17.2496 9.07751 16.7792 8.42622 16.1295 7.77638C14.8347 6.4815 12.8478 5.20768 9.99999 5.20768C7.15217 5.20768 5.16527 6.4815 3.87053 7.77638C3.22075 8.42622 2.75035 9.07751 2.44349 9.56493C2.33797 9.73253 2.25236 9.87986 2.18594 9.99992ZM18.75 9.99996L19.5112 10.3392C19.6069 10.1237 19.6069 9.87626 19.5112 9.66079L18.75 9.99996ZM2.01073 10.3401C2.01055 10.3405 2.01062 10.3404 2.01073 10.3401V10.3401ZM2.01082 9.65998C2.01063 9.65956 2.0107 9.65973 2.01082 9.65998V9.65998Z" fill="#727282"/>
</svg>
