<svg width="24" height="16" viewBox="0 0 24 16" fill="none" xmlns="http://www.w3.org/2000/svg">
<path fill-rule="evenodd" clip-rule="evenodd" d="M3.22995 3.91757C5.05127 2.09605 7.91698 0.249268 11.9996 0.249268C16.0822 0.249268 18.9479 2.09605 20.7692 3.91757C21.677 4.82544 22.3313 5.73157 22.7599 6.41243C22.9747 6.75363 23.1343 7.04053 23.2419 7.24596C23.2957 7.34875 23.3367 7.43135 23.3651 7.49041C23.3793 7.51994 23.3904 7.54361 23.3985 7.561L23.4082 7.58231L23.4114 7.58934L23.413 7.59299C23.4132 7.59346 23.4134 7.5939 22.4996 8C23.4134 8.40618 23.4132 8.40662 23.413 8.40708L23.4125 8.40814L23.4114 8.41073L23.4082 8.41776L23.3984 8.43908C23.3904 8.45646 23.3793 8.48012 23.3651 8.50965C23.3366 8.5687 23.2957 8.65129 23.2419 8.75405C23.1343 8.95944 22.9747 9.24629 22.7599 9.58743C22.3312 10.2681 21.6769 11.1741 20.7692 12.0818C18.9478 13.9029 16.0821 15.7493 11.9996 15.7493C7.91706 15.7493 5.05136 13.9029 3.23003 12.0818C2.32225 11.1741 1.66797 10.2681 1.23933 9.58743C1.02451 9.24629 0.864937 8.95944 0.757341 8.75405C0.703505 8.65129 0.662569 8.5687 0.634136 8.50965C0.619916 8.48012 0.608812 8.45646 0.600775 8.43908L0.591011 8.41776L0.587839 8.41073L0.586679 8.40814L0.586205 8.40708C0.585997 8.40662 0.585802 8.40618 1.4996 8C0.585769 7.5939 0.585965 7.59346 0.586172 7.59299L0.586646 7.59193L0.587806 7.58934L0.590977 7.58231L0.600741 7.561C0.608777 7.54361 0.61988 7.51994 0.634099 7.49041C0.662531 7.43135 0.703465 7.34875 0.757299 7.24596C0.864893 7.04053 1.02447 6.75363 1.23928 6.41243C1.66791 5.73157 2.32218 4.82544 3.22995 3.91757ZM1.4996 8L0.586172 7.59299C0.471265 7.85156 0.471276 8.14852 0.586205 8.40708L1.4996 8ZM2.62274 7.99995C2.70243 8.14397 2.80515 8.32069 2.93174 8.52172C3.29997 9.10649 3.86444 9.88785 4.64417 10.6675C6.19783 12.221 8.58214 13.7493 11.9996 13.7493C15.4171 13.7493 17.8014 12.221 19.355 10.6675C20.1348 9.88785 20.6992 9.10649 21.0675 8.52172C21.194 8.32069 21.2968 8.14397 21.3765 7.99995C21.2968 7.85588 21.194 7.67909 21.0674 7.47797C20.6992 6.89306 20.1347 6.11152 19.355 5.3317C17.8013 3.77785 15.417 2.24927 11.9996 2.24927C8.58221 2.24927 6.19793 3.77785 4.64424 5.3317C3.86451 6.11152 3.30003 6.89306 2.93179 7.47797C2.80518 7.67909 2.70244 7.85587 2.62274 7.99995ZM22.4996 8L23.413 8.40708C23.5279 8.14852 23.5279 7.85156 23.413 7.59299L22.4996 8ZM2.41249 8.4082C2.41226 8.4087 2.41235 8.4085 2.41249 8.4082V8.4082ZM2.41259 7.59202C2.41237 7.59153 2.41245 7.59172 2.41259 7.59202V7.59202Z" fill="#232233"/>
</svg>
